<svg xmlns="http://www.w3.org/2000/svg" xmlns:xlink="http://www.w3.org/1999/xlink" width="250" zoomAndPan="magnify" viewBox="0 0 187.92 196.08" height="250" preserveAspectRatio="xMidYMid meet" version="1.0"><defs><g/><clipPath id="c639881e02"><path d="M 36.734375 51.039062 L 150.679688 51.039062 L 150.679688 116.105469 L 36.734375 116.105469 Z M 36.734375 51.039062 " clip-rule="nonzero"/></clipPath><clipPath id="2ceac46569"><path d="M 79 16.074219 L 109 16.074219 L 109 46 L 79 46 Z M 79 16.074219 " clip-rule="nonzero"/></clipPath><clipPath id="2a3e79f44c"><rect x="0" width="167" y="0" height="50"/></clipPath><clipPath id="315fa9184a"><path d="M 133 5 L 140.792969 5 L 140.792969 14 L 133 14 Z M 133 5 " clip-rule="nonzero"/></clipPath><clipPath id="57d98d24e7"><rect x="0" width="141" y="0" height="18"/></clipPath></defs><g clip-path="url(#c639881e02)"><path fill="#ffffff" d="M 73.269531 68.84375 C 73.234375 69.253906 73.21875 69.667969 73.21875 70.085938 L 73.21875 97.589844 C 73.21875 100.84375 75.863281 103.492188 79.117188 103.492188 C 82.367188 103.492188 85.015625 100.84375 85.015625 97.589844 L 85.015625 81.363281 C 85.015625 74.714844 79.816406 69.257812 73.269531 68.84375 Z M 114.148438 68.84375 C 107.601562 69.257812 102.398438 74.714844 102.398438 81.363281 L 102.398438 97.589844 C 102.398438 100.84375 105.046875 103.492188 108.296875 103.492188 C 111.550781 103.492188 114.195312 100.84375 114.195312 97.589844 L 114.195312 70.085938 C 114.195312 69.667969 114.179688 69.253906 114.148438 68.84375 Z M 148.8125 116.140625 C 147.78125 116.140625 146.945312 115.304688 146.945312 114.273438 L 146.945312 81.363281 C 146.945312 74.445312 141.316406 68.820312 134.398438 68.820312 L 117.890625 68.820312 C 117.921875 69.238281 117.933594 69.660156 117.933594 70.085938 L 117.933594 97.589844 C 117.933594 102.90625 113.609375 107.226562 108.296875 107.226562 C 102.984375 107.226562 98.664062 102.90625 98.664062 97.589844 L 98.664062 81.363281 C 98.664062 77.015625 100.355469 72.925781 103.429688 69.851562 C 106.136719 67.144531 109.621094 65.511719 113.382812 65.15625 C 111.324219 59.132812 105.613281 54.792969 98.902344 54.792969 L 88.511719 54.792969 C 81.800781 54.792969 76.089844 59.132812 74.035156 65.15625 C 77.792969 65.511719 81.277344 67.144531 83.984375 69.851562 C 87.058594 72.925781 88.75 77.015625 88.75 81.363281 L 88.75 97.589844 C 88.75 102.90625 84.429688 107.226562 79.117188 107.226562 C 73.804688 107.226562 69.480469 102.90625 69.480469 97.589844 L 69.480469 70.085938 C 69.480469 69.660156 69.496094 69.238281 69.523438 68.820312 L 53.015625 68.820312 C 46.097656 68.820312 40.46875 74.445312 40.46875 81.363281 L 40.46875 114.273438 C 40.46875 115.304688 39.632812 116.140625 38.601562 116.140625 C 37.570312 116.140625 36.734375 115.304688 36.734375 114.273438 L 36.734375 81.363281 C 36.734375 77.015625 38.425781 72.925781 41.5 69.851562 C 44.578125 66.773438 48.664062 65.082031 53.015625 65.082031 L 70.140625 65.082031 C 71 61.914062 72.671875 59.011719 75.054688 56.632812 C 78.648438 53.035156 83.425781 51.058594 88.511719 51.058594 L 98.902344 51.058594 C 103.988281 51.058594 108.765625 53.035156 112.359375 56.632812 C 114.742188 59.011719 116.414062 61.914062 117.273438 65.082031 L 134.398438 65.082031 C 138.75 65.082031 142.839844 66.773438 145.914062 69.851562 C 148.988281 72.925781 150.679688 77.015625 150.679688 81.363281 L 150.679688 114.273438 C 150.679688 115.304688 149.84375 116.140625 148.8125 116.140625 " fill-opacity="1" fill-rule="nonzero"/></g><g clip-path="url(#2ceac46569)"><path fill="#ffffff" d="M 93.707031 19.8125 C 87.695312 19.8125 82.808594 24.703125 82.808594 30.710938 C 82.808594 36.722656 87.695312 41.609375 93.707031 41.609375 C 99.71875 41.609375 104.605469 36.722656 104.605469 30.710938 C 104.605469 24.703125 99.71875 19.8125 93.707031 19.8125 Z M 93.707031 45.347656 C 89.796875 45.347656 86.121094 43.824219 83.359375 41.0625 C 80.59375 38.296875 79.070312 34.621094 79.070312 30.710938 C 79.070312 26.800781 80.59375 23.125 83.359375 20.363281 C 86.121094 17.597656 89.796875 16.074219 93.707031 16.074219 C 97.617188 16.074219 101.292969 17.597656 104.054688 20.363281 C 106.820312 23.125 108.34375 26.800781 108.34375 30.710938 C 108.34375 34.621094 106.820312 38.296875 104.054688 41.0625 C 101.292969 43.824219 97.617188 45.347656 93.707031 45.347656 " fill-opacity="1" fill-rule="nonzero"/></g><path fill="#ffffff" d="M 126 33.015625 C 119.992188 33.015625 115.101562 37.90625 115.101562 43.914062 C 115.101562 49.925781 119.992188 54.816406 126 54.816406 C 132.011719 54.816406 136.902344 49.925781 136.902344 43.914062 C 136.902344 37.90625 132.011719 33.015625 126 33.015625 Z M 126 58.550781 C 122.089844 58.550781 118.414062 57.03125 115.652344 54.265625 C 112.886719 51.5 111.363281 47.824219 111.363281 43.914062 C 111.363281 40.007812 112.886719 36.332031 115.652344 33.566406 C 118.414062 30.800781 122.089844 29.277344 126 29.277344 C 129.910156 29.277344 133.585938 30.800781 136.351562 33.566406 C 139.113281 36.332031 140.636719 40.007812 140.636719 43.914062 C 140.636719 47.824219 139.113281 51.5 136.351562 54.265625 C 133.585938 57.03125 129.910156 58.550781 126 58.550781 " fill-opacity="1" fill-rule="nonzero"/><path fill="#ffffff" d="M 61.414062 33.015625 C 55.402344 33.015625 50.515625 37.90625 50.515625 43.914062 C 50.515625 49.925781 55.402344 54.816406 61.414062 54.816406 C 67.421875 54.816406 72.3125 49.925781 72.3125 43.914062 C 72.3125 37.90625 67.421875 33.015625 61.414062 33.015625 Z M 61.414062 58.550781 C 57.503906 58.550781 53.828125 57.03125 51.0625 54.265625 C 48.300781 51.5 46.777344 47.824219 46.777344 43.914062 C 46.777344 40.007812 48.300781 36.332031 51.0625 33.566406 C 53.828125 30.800781 57.503906 29.277344 61.414062 29.277344 C 65.324219 29.277344 69 30.800781 71.761719 33.566406 C 74.527344 36.332031 76.050781 40.007812 76.050781 43.914062 C 76.050781 47.824219 74.527344 51.5 71.761719 54.265625 C 69 57.03125 65.324219 58.550781 61.414062 58.550781 " fill-opacity="1" fill-rule="nonzero"/><g transform="matrix(1, 0, 0, 1, 10, 108)"><g clip-path="url(#2a3e79f44c)"><g fill="#ffffff" fill-opacity="1"><g transform="translate(1.164425, 39.749307)"><g><path d="M 2.65625 0 L 2.65625 -24.515625 L 18.578125 -24.515625 L 18.578125 -20.109375 L 7.65625 -20.109375 L 7.65625 -14.875 L 16.859375 -14.875 L 16.859375 -10.453125 L 7.65625 -10.453125 L 7.65625 -4.578125 L 18.578125 -4.578125 L 18.578125 0 Z M 2.65625 0 "/></g></g></g><g fill="#ffffff" fill-opacity="1"><g transform="translate(21.51479, 39.749307)"><g><path d="M 13.921875 0 L 8.03125 0 L 0.484375 -24.515625 L 5.546875 -24.515625 L 11.078125 -6.234375 L 16.578125 -24.515625 L 21.5625 -24.515625 Z M 13.921875 0 "/></g></g></g><g fill="#ffffff" fill-opacity="1"><g transform="translate(43.530024, 39.749307)"><g><path d="M 2.65625 0 L 2.65625 -24.515625 L 18.578125 -24.515625 L 18.578125 -20.109375 L 7.65625 -20.109375 L 7.65625 -14.875 L 16.859375 -14.875 L 16.859375 -10.453125 L 7.65625 -10.453125 L 7.65625 -4.578125 L 18.578125 -4.578125 L 18.578125 0 Z M 2.65625 0 "/></g></g></g><g fill="#ffffff" fill-opacity="1"><g transform="translate(63.880389, 39.749307)"><g><path d="M 16.46875 0 L 7.546875 -17.515625 L 7.546875 0 L 2.65625 0 L 2.65625 -24.515625 L 9.140625 -24.515625 L 17.453125 -7.984375 L 17.453125 -24.515625 L 22.359375 -24.515625 L 22.359375 0 Z M 16.46875 0 "/></g></g></g><g fill="#ffffff" fill-opacity="1"><g transform="translate(88.871133, 39.749307)"><g><path d="M 13.15625 -19.953125 L 13.15625 0 L 8.171875 0 L 8.171875 -19.953125 L 0.625 -19.953125 L 0.625 -24.515625 L 20.703125 -24.515625 L 20.703125 -19.953125 Z M 13.15625 -19.953125 "/></g></g></g><g fill="#ffffff" fill-opacity="1"><g transform="translate(110.195623, 39.749307)"><g><path d="M 13.640625 0 L 1.8125 0 L 1.8125 -3.84375 L 5.21875 -3.84375 L 5.21875 -20.671875 L 1.8125 -20.671875 L 1.8125 -24.515625 L 13.640625 -24.515625 L 13.640625 -20.671875 L 10.234375 -20.671875 L 10.234375 -3.84375 L 13.640625 -3.84375 Z M 13.640625 0 "/></g></g></g><g fill="#ffffff" fill-opacity="1"><g transform="translate(125.639938, 39.749307)"><g><path d="M 7.65625 -19.953125 L 7.65625 -14.65625 L 16.6875 -14.65625 L 16.6875 -10.234375 L 7.65625 -10.234375 L 7.65625 0 L 2.65625 0 L 2.65625 -24.515625 L 18.421875 -24.515625 L 18.421875 -19.953125 Z M 7.65625 -19.953125 "/></g></g></g><g fill="#ffffff" fill-opacity="1"><g transform="translate(145.193292, 39.749307)"><g><path d="M 13.015625 -9.359375 L 13.015625 0 L 7.984375 0 L 7.984375 -9.25 L 0.3125 -24.515625 L 5.78125 -24.515625 L 10.5625 -14.265625 L 15.453125 -24.515625 L 20.703125 -24.515625 Z M 13.015625 -9.359375 "/></g></g></g></g></g><g transform="matrix(1, 0, 0, 1, 23, 151)"><g clip-path="url(#57d98d24e7)"><g fill="#ffffff" fill-opacity="1"><g transform="translate(1.064708, 13.754865)"><g><path d="M 7.5625 -3.578125 C 7.5625 -2.640625 7.457031 -1.898438 7.25 -1.359375 C 7.039062 -0.816406 6.707031 -0.421875 6.25 -0.171875 C 5.800781 0.0664062 5.171875 0.1875 4.359375 0.1875 C 3.554688 0.1875 2.921875 0.0625 2.453125 -0.1875 C 1.984375 -0.4375 1.644531 -0.832031 1.4375 -1.375 C 1.226562 -1.925781 1.125 -2.660156 1.125 -3.578125 L 1.125 -8.5625 L 2.265625 -8.5625 L 2.265625 -3.703125 C 2.265625 -2.953125 2.332031 -2.375 2.46875 -1.96875 C 2.601562 -1.5625 2.816406 -1.269531 3.109375 -1.09375 C 3.410156 -0.914062 3.820312 -0.828125 4.34375 -0.828125 C 4.863281 -0.828125 5.269531 -0.910156 5.5625 -1.078125 C 5.863281 -1.253906 6.082031 -1.535156 6.21875 -1.921875 C 6.351562 -2.304688 6.421875 -2.890625 6.421875 -3.671875 L 6.421875 -8.5625 L 7.5625 -8.5625 Z M 7.5625 -3.578125 "/></g></g></g><g fill="#ffffff" fill-opacity="1"><g transform="translate(9.759107, 13.754865)"><g><path d="M 6.09375 0 L 2.234375 -7.34375 L 2.234375 0 L 1.125 0 L 1.125 -8.5625 L 2.796875 -8.5625 L 6.34375 -1.84375 L 6.34375 -8.5625 L 7.453125 -8.5625 L 7.453125 0 Z M 6.09375 0 "/></g></g></g><g fill="#ffffff" fill-opacity="1"><g transform="translate(18.335931, 13.754865)"><g><path d="M 4.140625 0 L 0.625 0 L 0.625 -0.984375 L 1.8125 -0.984375 L 1.8125 -7.59375 L 0.625 -7.59375 L 0.625 -8.5625 L 4.140625 -8.5625 L 4.140625 -7.59375 L 2.953125 -7.59375 L 2.953125 -0.984375 L 4.140625 -0.984375 Z M 4.140625 0 "/></g></g></g><g fill="#ffffff" fill-opacity="1"><g transform="translate(23.100834, 13.754865)"><g><path d="M 4.234375 -7.53125 L 4.234375 0 L 3.09375 0 L 3.09375 -7.53125 L 0.25 -7.53125 L 0.25 -8.5625 L 7.078125 -8.5625 L 7.078125 -7.53125 Z M 4.234375 -7.53125 "/></g></g></g><g fill="#ffffff" fill-opacity="1"><g transform="translate(30.427644, 13.754865)"><g><path d="M 1.125 0 L 1.125 -8.5625 L 6.359375 -8.5625 L 6.359375 -7.53125 L 2.265625 -7.53125 L 2.265625 -5.03125 L 5.765625 -5.03125 L 5.765625 -3.984375 L 2.265625 -3.984375 L 2.265625 -1.046875 L 6.359375 -1.046875 L 6.359375 0 Z M 1.125 0 "/></g></g></g><g fill="#ffffff" fill-opacity="1"><g transform="translate(37.562621, 13.754865)"><g/></g></g><g fill="#ffffff" fill-opacity="1"><g transform="translate(40.984687, 13.754865)"><g><path d="M 4.234375 -7.53125 L 4.234375 0 L 3.09375 0 L 3.09375 -7.53125 L 0.25 -7.53125 L 0.25 -8.5625 L 7.078125 -8.5625 L 7.078125 -7.53125 Z M 4.234375 -7.53125 "/></g></g></g><g fill="#ffffff" fill-opacity="1"><g transform="translate(48.311498, 13.754865)"><g><path d="M 6.171875 0 L 6.171875 -3.921875 L 2.265625 -3.921875 L 2.265625 0 L 1.125 0 L 1.125 -8.5625 L 2.265625 -8.5625 L 2.265625 -4.953125 L 6.171875 -4.953125 L 6.171875 -8.5625 L 7.3125 -8.5625 L 7.3125 0 Z M 6.171875 0 "/></g></g></g><g fill="#ffffff" fill-opacity="1"><g transform="translate(56.752182, 13.754865)"><g><path d="M 5.953125 0 L 3.765625 -3.5 L 2.265625 -3.5 L 2.265625 0 L 1.125 0 L 1.125 -8.5625 L 3.78125 -8.5625 C 4.851562 -8.5625 5.617188 -8.363281 6.078125 -7.96875 C 6.535156 -7.582031 6.765625 -6.976562 6.765625 -6.15625 C 6.765625 -5.457031 6.625 -4.898438 6.34375 -4.484375 C 6.0625 -4.078125 5.601562 -3.804688 4.96875 -3.671875 L 7.28125 0 Z M 5.59375 -6.0625 C 5.59375 -6.632812 5.445312 -7.023438 5.15625 -7.234375 C 4.875 -7.453125 4.414062 -7.5625 3.78125 -7.5625 L 2.265625 -7.5625 L 2.265625 -4.515625 L 3.703125 -4.515625 C 4.179688 -4.515625 4.554688 -4.5625 4.828125 -4.65625 C 5.097656 -4.757812 5.289062 -4.921875 5.40625 -5.140625 C 5.53125 -5.359375 5.59375 -5.664062 5.59375 -6.0625 Z M 5.59375 -6.0625 "/></g></g></g><g fill="#ffffff" fill-opacity="1"><g transform="translate(64.406966, 13.754865)"><g><path d="M 7.703125 -4.28125 C 7.703125 -2.738281 7.410156 -1.609375 6.828125 -0.890625 C 6.253906 -0.179688 5.382812 0.171875 4.21875 0.171875 C 3.039062 0.171875 2.164062 -0.191406 1.59375 -0.921875 C 1.019531 -1.648438 0.734375 -2.769531 0.734375 -4.28125 C 0.734375 -5.78125 1.015625 -6.898438 1.578125 -7.640625 C 2.148438 -8.378906 3.03125 -8.75 4.21875 -8.75 C 5.394531 -8.75 6.269531 -8.382812 6.84375 -7.65625 C 7.414062 -6.9375 7.703125 -5.8125 7.703125 -4.28125 Z M 6.5 -4.28125 C 6.5 -5.46875 6.320312 -6.335938 5.96875 -6.890625 C 5.613281 -7.453125 5.03125 -7.734375 4.21875 -7.734375 C 3.40625 -7.734375 2.820312 -7.453125 2.46875 -6.890625 C 2.113281 -6.335938 1.9375 -5.46875 1.9375 -4.28125 C 1.9375 -3.09375 2.113281 -2.21875 2.46875 -1.65625 C 2.832031 -1.101562 3.414062 -0.828125 4.21875 -0.828125 C 5.007812 -0.828125 5.585938 -1.101562 5.953125 -1.65625 C 6.316406 -2.207031 6.5 -3.082031 6.5 -4.28125 Z M 6.5 -4.28125 "/></g></g></g><g fill="#ffffff" fill-opacity="1"><g transform="translate(72.84765, 13.754865)"><g><path d="M 7.5625 -3.578125 C 7.5625 -2.640625 7.457031 -1.898438 7.25 -1.359375 C 7.039062 -0.816406 6.707031 -0.421875 6.25 -0.171875 C 5.800781 0.0664062 5.171875 0.1875 4.359375 0.1875 C 3.554688 0.1875 2.921875 0.0625 2.453125 -0.1875 C 1.984375 -0.4375 1.644531 -0.832031 1.4375 -1.375 C 1.226562 -1.925781 1.125 -2.660156 1.125 -3.578125 L 1.125 -8.5625 L 2.265625 -8.5625 L 2.265625 -3.703125 C 2.265625 -2.953125 2.332031 -2.375 2.46875 -1.96875 C 2.601562 -1.5625 2.816406 -1.269531 3.109375 -1.09375 C 3.410156 -0.914062 3.820312 -0.828125 4.34375 -0.828125 C 4.863281 -0.828125 5.269531 -0.910156 5.5625 -1.078125 C 5.863281 -1.253906 6.082031 -1.535156 6.21875 -1.921875 C 6.351562 -2.304688 6.421875 -2.890625 6.421875 -3.671875 L 6.421875 -8.5625 L 7.5625 -8.5625 Z M 7.5625 -3.578125 "/></g></g></g><g fill="#ffffff" fill-opacity="1"><g transform="translate(81.54205, 13.754865)"><g><path d="M 6.65625 -6.5 C 6.445312 -6.875 6.175781 -7.171875 5.84375 -7.390625 C 5.507812 -7.617188 5.0625 -7.734375 4.5 -7.734375 C 3.632812 -7.734375 3 -7.445312 2.59375 -6.875 C 2.195312 -6.300781 2 -5.425781 2 -4.25 C 2 -3.050781 2.210938 -2.179688 2.640625 -1.640625 C 3.078125 -1.097656 3.722656 -0.828125 4.578125 -0.828125 C 4.910156 -0.828125 5.21875 -0.863281 5.5 -0.9375 C 5.78125 -1.019531 6.085938 -1.132812 6.421875 -1.28125 L 6.421875 -3.3125 L 4.34375 -3.3125 L 4.34375 -4.34375 L 7.5625 -4.34375 L 7.5625 -0.65625 C 7.101562 -0.394531 6.640625 -0.191406 6.171875 -0.046875 C 5.710938 0.0976562 5.179688 0.171875 4.578125 0.171875 C 3.296875 0.171875 2.34375 -0.191406 1.71875 -0.921875 C 1.101562 -1.660156 0.796875 -2.773438 0.796875 -4.265625 C 0.796875 -5.773438 1.101562 -6.898438 1.71875 -7.640625 C 2.34375 -8.378906 3.273438 -8.75 4.515625 -8.75 C 5.210938 -8.75 5.816406 -8.625 6.328125 -8.375 C 6.835938 -8.125 7.253906 -7.710938 7.578125 -7.140625 Z M 6.65625 -6.5 "/></g></g></g><g fill="#ffffff" fill-opacity="1"><g transform="translate(90.149815, 13.754865)"><g><path d="M 6.171875 0 L 6.171875 -3.921875 L 2.265625 -3.921875 L 2.265625 0 L 1.125 0 L 1.125 -8.5625 L 2.265625 -8.5625 L 2.265625 -4.953125 L 6.171875 -4.953125 L 6.171875 -8.5625 L 7.3125 -8.5625 L 7.3125 0 Z M 6.171875 0 "/></g></g></g><g fill="#ffffff" fill-opacity="1"><g transform="translate(98.590499, 13.754865)"><g/></g></g><g fill="#ffffff" fill-opacity="1"><g transform="translate(102.012565, 13.754865)"><g><path d="M 6.875 -2.34375 C 6.875 -1.539062 6.609375 -0.921875 6.078125 -0.484375 C 5.554688 -0.046875 4.789062 0.171875 3.78125 0.171875 C 3.007812 0.171875 2.363281 0.0351562 1.84375 -0.234375 C 1.332031 -0.503906 0.914062 -0.925781 0.59375 -1.5 L 1.515625 -2.109375 C 2.003906 -1.253906 2.753906 -0.828125 3.765625 -0.828125 C 4.367188 -0.828125 4.84375 -0.953125 5.1875 -1.203125 C 5.539062 -1.460938 5.71875 -1.816406 5.71875 -2.265625 C 5.71875 -2.515625 5.660156 -2.722656 5.546875 -2.890625 C 5.441406 -3.066406 5.296875 -3.210938 5.109375 -3.328125 C 4.929688 -3.453125 4.722656 -3.546875 4.484375 -3.609375 C 4.253906 -3.679688 4.007812 -3.753906 3.75 -3.828125 C 3.332031 -3.929688 2.941406 -4.035156 2.578125 -4.140625 C 2.210938 -4.253906 1.894531 -4.394531 1.625 -4.5625 C 1.363281 -4.738281 1.15625 -4.960938 1 -5.234375 C 0.84375 -5.503906 0.765625 -5.851562 0.765625 -6.28125 C 0.765625 -7.03125 1.007812 -7.628906 1.5 -8.078125 C 1.988281 -8.523438 2.722656 -8.75 3.703125 -8.75 C 4.472656 -8.75 5.085938 -8.601562 5.546875 -8.3125 C 6.015625 -8.019531 6.382812 -7.648438 6.65625 -7.203125 L 5.734375 -6.5625 C 5.515625 -6.9375 5.242188 -7.222656 4.921875 -7.421875 C 4.609375 -7.628906 4.203125 -7.734375 3.703125 -7.734375 C 3.140625 -7.734375 2.703125 -7.609375 2.390625 -7.359375 C 2.085938 -7.109375 1.9375 -6.78125 1.9375 -6.375 C 1.9375 -6.15625 1.984375 -5.96875 2.078125 -5.8125 C 2.171875 -5.664062 2.300781 -5.539062 2.46875 -5.4375 C 2.644531 -5.34375 2.863281 -5.257812 3.125 -5.1875 C 3.382812 -5.113281 3.675781 -5.035156 4 -4.953125 C 4.382812 -4.847656 4.753906 -4.738281 5.109375 -4.625 C 5.460938 -4.519531 5.769531 -4.375 6.03125 -4.1875 C 6.289062 -4 6.492188 -3.757812 6.640625 -3.46875 C 6.796875 -3.175781 6.875 -2.800781 6.875 -2.34375 Z M 6.875 -2.34375 "/></g></g></g><g fill="#ffffff" fill-opacity="1"><g transform="translate(109.605468, 13.754865)"><g><path d="M 6.703125 -5.828125 C 6.703125 -4.796875 6.457031 -4.050781 5.96875 -3.59375 C 5.488281 -3.132812 4.703125 -2.90625 3.609375 -2.90625 L 2.265625 -2.90625 L 2.265625 0 L 1.125 0 L 1.125 -8.5625 L 3.65625 -8.5625 C 4.726562 -8.5625 5.503906 -8.335938 5.984375 -7.890625 C 6.460938 -7.453125 6.703125 -6.765625 6.703125 -5.828125 Z M 5.5 -5.796875 C 5.5 -6.398438 5.347656 -6.835938 5.046875 -7.109375 C 4.753906 -7.390625 4.25 -7.53125 3.53125 -7.53125 L 2.265625 -7.53125 L 2.265625 -3.9375 L 3.375 -3.9375 C 3.976562 -3.9375 4.414062 -3.992188 4.6875 -4.109375 C 4.96875 -4.234375 5.171875 -4.425781 5.296875 -4.6875 C 5.429688 -4.945312 5.5 -5.316406 5.5 -5.796875 Z M 5.5 -5.796875 "/></g></g></g><g fill="#ffffff" fill-opacity="1"><g transform="translate(116.919902, 13.754865)"><g><path d="M 7.703125 -4.28125 C 7.703125 -2.738281 7.410156 -1.609375 6.828125 -0.890625 C 6.253906 -0.179688 5.382812 0.171875 4.21875 0.171875 C 3.039062 0.171875 2.164062 -0.191406 1.59375 -0.921875 C 1.019531 -1.648438 0.734375 -2.769531 0.734375 -4.28125 C 0.734375 -5.78125 1.015625 -6.898438 1.578125 -7.640625 C 2.148438 -8.378906 3.03125 -8.75 4.21875 -8.75 C 5.394531 -8.75 6.269531 -8.382812 6.84375 -7.65625 C 7.414062 -6.9375 7.703125 -5.8125 7.703125 -4.28125 Z M 6.5 -4.28125 C 6.5 -5.46875 6.320312 -6.335938 5.96875 -6.890625 C 5.613281 -7.453125 5.03125 -7.734375 4.21875 -7.734375 C 3.40625 -7.734375 2.820312 -7.453125 2.46875 -6.890625 C 2.113281 -6.335938 1.9375 -5.46875 1.9375 -4.28125 C 1.9375 -3.09375 2.113281 -2.21875 2.46875 -1.65625 C 2.832031 -1.101562 3.414062 -0.828125 4.21875 -0.828125 C 5.007812 -0.828125 5.585938 -1.101562 5.953125 -1.65625 C 6.316406 -2.207031 6.5 -3.082031 6.5 -4.28125 Z M 6.5 -4.28125 "/></g></g></g><g fill="#ffffff" fill-opacity="1"><g transform="translate(125.360586, 13.754865)"><g><path d="M 5.953125 0 L 3.765625 -3.5 L 2.265625 -3.5 L 2.265625 0 L 1.125 0 L 1.125 -8.5625 L 3.78125 -8.5625 C 4.851562 -8.5625 5.617188 -8.363281 6.078125 -7.96875 C 6.535156 -7.582031 6.765625 -6.976562 6.765625 -6.15625 C 6.765625 -5.457031 6.625 -4.898438 6.34375 -4.484375 C 6.0625 -4.078125 5.601562 -3.804688 4.96875 -3.671875 L 7.28125 0 Z M 5.59375 -6.0625 C 5.59375 -6.632812 5.445312 -7.023438 5.15625 -7.234375 C 4.875 -7.453125 4.414062 -7.5625 3.78125 -7.5625 L 2.265625 -7.5625 L 2.265625 -4.515625 L 3.703125 -4.515625 C 4.179688 -4.515625 4.554688 -4.5625 4.828125 -4.65625 C 5.097656 -4.757812 5.289062 -4.921875 5.40625 -5.140625 C 5.53125 -5.359375 5.59375 -5.664062 5.59375 -6.0625 Z M 5.59375 -6.0625 "/></g></g></g><g clip-path="url(#315fa9184a)"><g fill="#ffffff" fill-opacity="1"><g transform="translate(133.01537, 13.754865)"><g><path d="M 4.234375 -7.53125 L 4.234375 0 L 3.09375 0 L 3.09375 -7.53125 L 0.25 -7.53125 L 0.25 -8.5625 L 7.078125 -8.5625 L 7.078125 -7.53125 Z M 4.234375 -7.53125 "/></g></g></g></g></g></g></svg>