<svg xmlns="http://www.w3.org/2000/svg" xmlns:xlink="http://www.w3.org/1999/xlink" width="250" zoomAndPan="magnify" viewBox="0 0 187.92 196.08" height="250" preserveAspectRatio="xMidYMid meet" version="1.0"><defs><clipPath id="863c58bcf6"><path d="M 1 1.003906 L 174.796875 1.003906 L 174.796875 170.335938 L 1 170.335938 Z M 1 1.003906 " clip-rule="nonzero"/></clipPath><clipPath id="66baa62dad"><path d="M 24.945312 72.496094 L 150.621094 72.496094 L 150.621094 144.300781 L 24.945312 144.300781 Z M 24.945312 72.496094 " clip-rule="nonzero"/></clipPath><clipPath id="520dd85a49"><path d="M 71 33.933594 L 104 33.933594 L 104 67 L 71 67 Z M 71 33.933594 " clip-rule="nonzero"/></clipPath><clipPath id="9b22c4008e"><rect x="0" width="175" y="0" height="171"/></clipPath></defs><g transform="matrix(1, 0, 0, 1, 5, 5)"><g clip-path="url(#9b22c4008e)"><g clip-path="url(#863c58bcf6)"><path fill="#ffffff" d="M 87.929688 1.140625 C 124.941406 1.023438 157.984375 23.773438 169.664062 57.8125 C 178.367188 83.175781 175.828125 107.738281 161.191406 130.597656 C 147.484375 152.015625 127.355469 165.71875 100.867188 169.3125 C 66.226562 174.023438 38.582031 161.867188 17.992188 135.574219 C 4.445312 118.277344 -0.945312 98.46875 1.707031 77.242188 C 5.839844 44.199219 23.621094 20.066406 56.558594 6.746094 C 66.523438 2.714844 77.105469 1.195312 87.929688 1.140625 Z M 170.320312 88.527344 C 170.058594 78.105469 169.097656 70.605469 166.882812 63.246094 C 157.269531 31.3125 129.304688 7.398438 92.703125 5.386719 C 73.546875 4.332031 56.054688 8.949219 40.6875 19.664062 C 18.023438 35.460938 6.742188 57.1875 5.554688 83.484375 C 4.742188 101.402344 10.261719 117.789062 20.953125 132.652344 C 43.636719 164.171875 87.410156 175.621094 123.125 158.449219 C 154.320312 143.445312 168.660156 118.105469 170.320312 88.527344 Z M 170.320312 88.527344 " fill-opacity="1" fill-rule="nonzero"/></g><g clip-path="url(#66baa62dad)"><path fill="#ffffff" d="M 65.238281 92.132812 C 65.203125 92.585938 65.183594 93.042969 65.183594 93.503906 L 65.183594 123.839844 C 65.183594 127.429688 68.101562 130.347656 71.691406 130.347656 C 75.277344 130.347656 78.195312 127.429688 78.195312 123.839844 L 78.195312 105.941406 C 78.195312 98.609375 72.460938 92.589844 65.238281 92.132812 Z M 110.328125 92.132812 C 103.105469 92.589844 97.371094 98.609375 97.371094 105.941406 L 97.371094 123.839844 C 97.371094 127.429688 100.289062 130.347656 103.875 130.347656 C 107.464844 130.347656 110.382812 127.429688 110.382812 123.839844 L 110.382812 93.503906 C 110.382812 93.042969 110.363281 92.585938 110.328125 92.132812 Z M 148.5625 144.300781 C 147.421875 144.300781 146.5 143.378906 146.5 142.242188 L 146.5 105.941406 C 146.5 98.3125 140.292969 92.105469 132.664062 92.105469 L 114.457031 92.105469 C 114.488281 92.570312 114.503906 93.035156 114.503906 93.503906 L 114.503906 123.839844 C 114.503906 129.699219 109.734375 134.46875 103.875 134.46875 C 98.015625 134.46875 93.25 129.699219 93.25 123.839844 L 93.25 105.941406 C 93.25 101.144531 95.117188 96.636719 98.507812 93.242188 C 101.492188 90.261719 105.335938 88.457031 109.484375 88.066406 C 107.214844 81.425781 100.914062 76.636719 93.515625 76.636719 L 82.050781 76.636719 C 74.652344 76.636719 68.351562 81.425781 66.085938 88.066406 C 70.230469 88.457031 74.074219 90.261719 77.058594 93.242188 C 80.449219 96.636719 82.316406 101.144531 82.316406 105.941406 L 82.316406 123.839844 C 82.316406 129.699219 77.550781 134.46875 71.691406 134.46875 C 65.832031 134.46875 61.0625 129.699219 61.0625 123.839844 L 61.0625 93.503906 C 61.0625 93.035156 61.078125 92.570312 61.109375 92.105469 L 42.902344 92.105469 C 35.273438 92.105469 29.066406 98.3125 29.066406 105.941406 L 29.066406 142.242188 C 29.066406 143.378906 28.144531 144.300781 27.003906 144.300781 C 25.867188 144.300781 24.945312 143.378906 24.945312 142.242188 L 24.945312 105.941406 C 24.945312 101.144531 26.8125 96.636719 30.203125 93.242188 C 33.59375 89.851562 38.105469 87.984375 42.902344 87.984375 L 61.792969 87.984375 C 62.738281 84.492188 64.582031 81.289062 67.210938 78.664062 C 71.175781 74.699219 76.445312 72.515625 82.050781 72.515625 L 93.515625 72.515625 C 99.121094 72.515625 104.390625 74.699219 108.355469 78.664062 C 110.984375 81.289062 112.828125 84.492188 113.773438 87.984375 L 132.664062 87.984375 C 137.460938 87.984375 141.972656 89.851562 145.363281 93.242188 C 148.753906 96.636719 150.621094 101.144531 150.621094 105.941406 L 150.621094 142.242188 C 150.621094 143.378906 149.699219 144.300781 148.5625 144.300781 " fill-opacity="1" fill-rule="nonzero"/></g><g clip-path="url(#520dd85a49)"><path fill="#ffffff" d="M 87.78125 38.054688 C 81.15625 38.054688 75.761719 43.449219 75.761719 50.078125 C 75.761719 56.707031 81.15625 62.097656 87.78125 62.097656 C 94.414062 62.097656 99.804688 56.707031 99.804688 50.078125 C 99.804688 43.449219 94.414062 38.054688 87.78125 38.054688 Z M 87.78125 66.21875 C 83.472656 66.21875 79.417969 64.539062 76.367188 61.492188 C 73.320312 58.441406 71.640625 54.386719 71.640625 50.078125 C 71.640625 45.765625 73.320312 41.710938 76.367188 38.660156 C 79.417969 35.613281 83.472656 33.933594 87.78125 33.933594 C 92.09375 33.933594 96.148438 35.613281 99.199219 38.660156 C 102.246094 41.710938 103.925781 45.765625 103.925781 50.078125 C 103.925781 54.386719 102.246094 58.441406 99.199219 61.492188 C 96.148438 64.539062 92.09375 66.21875 87.78125 66.21875 " fill-opacity="1" fill-rule="nonzero"/></g><path fill="#ffffff" d="M 123.402344 52.617188 C 116.773438 52.617188 111.378906 58.011719 111.378906 64.640625 C 111.378906 71.269531 116.773438 76.660156 123.402344 76.660156 C 130.03125 76.660156 135.421875 71.269531 135.421875 64.640625 C 135.421875 58.011719 130.03125 52.617188 123.402344 52.617188 Z M 123.402344 80.78125 C 119.089844 80.78125 115.035156 79.105469 111.984375 76.054688 C 108.9375 73.003906 107.257812 68.953125 107.257812 64.640625 C 107.257812 60.328125 108.9375 56.273438 111.984375 53.226562 C 115.035156 50.175781 119.089844 48.496094 123.402344 48.496094 C 127.714844 48.496094 131.765625 50.175781 134.816406 53.226562 C 137.863281 56.273438 139.542969 60.328125 139.542969 64.640625 C 139.542969 68.953125 137.863281 73.003906 134.816406 76.054688 C 131.765625 79.105469 127.714844 80.78125 123.402344 80.78125 " fill-opacity="1" fill-rule="nonzero"/><path fill="#ffffff" d="M 52.164062 52.617188 C 45.535156 52.617188 40.144531 58.011719 40.144531 64.640625 C 40.144531 71.269531 45.535156 76.660156 52.164062 76.660156 C 58.792969 76.660156 64.1875 71.269531 64.1875 64.640625 C 64.1875 58.011719 58.792969 52.617188 52.164062 52.617188 Z M 52.164062 80.78125 C 47.855469 80.78125 43.800781 79.101562 40.75 76.054688 C 37.703125 73.003906 36.023438 68.953125 36.023438 64.640625 C 36.023438 60.328125 37.703125 56.273438 40.75 53.222656 C 43.800781 50.175781 47.855469 48.496094 52.164062 48.496094 C 56.476562 48.496094 60.53125 50.175781 63.582031 53.222656 C 66.628906 56.273438 68.308594 60.328125 68.308594 64.640625 C 68.308594 68.953125 66.628906 73.003906 63.582031 76.054688 C 60.53125 79.101562 56.476562 80.78125 52.164062 80.78125 " fill-opacity="1" fill-rule="nonzero"/></g></g></svg>