<svg xmlns="http://www.w3.org/2000/svg" xmlns:xlink="http://www.w3.org/1999/xlink" width="500" zoomAndPan="magnify" viewBox="0 0 375 374.999991" height="500" preserveAspectRatio="xMidYMid meet" version="1.0"><defs><g/><clipPath id="be6454c2e4"><path d="M 48.425781 142.648438 L 326.675781 142.648438 L 326.675781 232.648438 L 48.425781 232.648438 Z M 48.425781 142.648438 " clip-rule="nonzero"/></clipPath></defs><g clip-path="url(#be6454c2e4)"><path fill="#ffffff" d="M 187.472656 142.648438 C 110.765625 142.648438 48.589844 162.730469 48.589844 187.46875 C 48.589844 212.207031 110.765625 232.289062 187.472656 232.289062 C 264.175781 232.289062 326.351562 212.207031 326.351562 187.46875 C 326.351562 162.730469 264.175781 142.648438 187.472656 142.648438 Z M 187.472656 230.914062 C 123.46875 230.914062 71.582031 211.46875 71.582031 187.496094 C 71.582031 163.523438 123.46875 144.050781 187.472656 144.050781 C 251.472656 144.050781 303.359375 163.496094 303.359375 187.46875 C 303.359375 211.441406 251.472656 230.886719 187.472656 230.886719 Z M 187.472656 230.914062 " fill-opacity="1" fill-rule="nonzero"/></g><g fill="#ffffff" fill-opacity="1"><g transform="translate(88.838457, 198.749987)"><g><path d="M 26.78125 0 L 0.28125 0 L 5.25 -23.375 L 31.40625 -23.375 L 30.046875 -16.96875 L 14.953125 -16.96875 L 14.40625 -14.375 L 28.140625 -14.375 L 27.0625 -9.34375 L 13.34375 -9.34375 L 12.71875 -6.421875 L 28.140625 -6.421875 Z M 26.78125 0 "/></g></g></g><g fill="#ffffff" fill-opacity="1"><g transform="translate(117.586186, 198.749987)"><g><path d="M 19.890625 0 L 6.203125 0 L 2.140625 -18.6875 L 12.875 -18.6875 L 14.1875 -9.71875 L 14.09375 -5.5 L 14.3125 -5.5 L 16.015625 -9.71875 L 21.140625 -18.6875 L 31.875 -18.6875 Z M 19.890625 0 "/></g></g></g><g fill="#ffffff" fill-opacity="1"><g transform="translate(146.648444, 198.749987)"><g><path d="M 16.875 -19.359375 C 21.3125 -19.359375 24.578125 -18.460938 26.671875 -16.671875 C 28.773438 -14.890625 29.472656 -12.351562 28.765625 -9.0625 L 28.734375 -8.78125 L 28.703125 -8.78125 L 28.578125 -8.09375 L 10.203125 -8.09375 C 10.109375 -6.9375 10.398438 -6.109375 11.078125 -5.609375 C 11.765625 -5.117188 12.738281 -4.875 14 -4.875 C 15.28125 -4.875 16.300781 -5.070312 17.0625 -5.46875 C 17.832031 -5.875 18.382812 -6.390625 18.71875 -7.015625 L 18.78125 -7.109375 L 28.296875 -7.109375 L 28.234375 -7.015625 C 27.703125 -5.691406 26.820312 -4.441406 25.59375 -3.265625 C 24.375 -2.097656 22.726562 -1.144531 20.65625 -0.40625 C 18.59375 0.320312 16.03125 0.6875 12.96875 0.6875 C 10.09375 0.6875 7.660156 0.300781 5.671875 -0.46875 C 3.691406 -1.25 2.273438 -2.398438 1.421875 -3.921875 C 0.578125 -5.441406 0.382812 -7.300781 0.84375 -9.5 L 0.90625 -9.8125 C 1.351562 -11.832031 2.285156 -13.550781 3.703125 -14.96875 C 5.117188 -16.382812 6.941406 -17.46875 9.171875 -18.21875 C 11.410156 -18.976562 13.976562 -19.359375 16.875 -19.359375 Z M 15.921875 -14.1875 C 13.554688 -14.1875 11.941406 -13.273438 11.078125 -11.453125 L 19.734375 -11.453125 C 19.671875 -12.296875 19.332031 -12.960938 18.71875 -13.453125 C 18.113281 -13.941406 17.179688 -14.1875 15.921875 -14.1875 Z M 15.921875 -14.1875 "/></g></g></g><g fill="#ffffff" fill-opacity="1"><g transform="translate(175.584885, 198.749987)"><g><path d="M 22.5 -19.359375 C 24.382812 -19.359375 25.976562 -19.023438 27.28125 -18.359375 C 28.582031 -17.703125 29.476562 -16.640625 29.96875 -15.171875 C 30.46875 -13.703125 30.453125 -11.75 29.921875 -9.3125 L 27.96875 0 L 18.21875 0 L 20.015625 -8.5 C 20.328125 -9.988281 20.242188 -11.082031 19.765625 -11.78125 C 19.296875 -12.488281 18.414062 -12.84375 17.125 -12.84375 C 15.570312 -12.84375 14.300781 -12.367188 13.3125 -11.421875 C 12.320312 -10.472656 11.679688 -9.300781 11.390625 -7.90625 L 9.71875 0 L 0 0 L 3.96875 -18.6875 L 13.6875 -18.6875 L 13.25 -16.578125 L 12.4375 -14.21875 L 12.5625 -14.21875 C 13.726562 -15.851562 15.144531 -17.117188 16.8125 -18.015625 C 18.488281 -18.910156 20.382812 -19.359375 22.5 -19.359375 Z M 22.5 -19.359375 "/></g></g></g><g fill="#ffffff" fill-opacity="1"><g transform="translate(206.25125, 198.749987)"><g><path d="M 19.640625 -12.65625 L 13.90625 -12.65625 L 13.0625 -8.625 C 12.9375 -7.945312 12.882812 -7.363281 12.90625 -6.875 C 12.925781 -6.382812 13.109375 -6 13.453125 -5.71875 C 13.796875 -5.445312 14.367188 -5.3125 15.171875 -5.3125 C 15.710938 -5.3125 16.242188 -5.347656 16.765625 -5.421875 C 17.296875 -5.492188 17.757812 -5.578125 18.15625 -5.671875 L 17.96875 -0.375 C 16.894531 -0.0390625 15.726562 0.21875 14.46875 0.40625 C 13.21875 0.59375 11.804688 0.6875 10.234375 0.6875 C 8.023438 0.6875 6.34375 0.332031 5.1875 -0.375 C 4.039062 -1.09375 3.320312 -2.085938 3.03125 -3.359375 C 2.75 -4.640625 2.785156 -6.117188 3.140625 -7.796875 L 4.1875 -12.65625 L 1.0625 -12.65625 L 2.328125 -18.6875 L 5.46875 -18.6875 L 6.328125 -22.6875 L 16.046875 -22.6875 L 15.203125 -18.6875 L 20.890625 -18.6875 Z M 19.640625 -12.65625 "/></g></g></g><g fill="#ffffff" fill-opacity="1"><g transform="translate(225.405751, 198.749987)"><g><path d="M 9.28125 -20.484375 C 7.394531 -20.484375 6.078125 -20.742188 5.328125 -21.265625 C 4.585938 -21.796875 4.332031 -22.640625 4.5625 -23.796875 C 4.8125 -24.941406 5.425781 -25.773438 6.40625 -26.296875 C 7.382812 -26.828125 8.816406 -27.09375 10.703125 -27.09375 C 12.566406 -27.09375 13.863281 -26.828125 14.59375 -26.296875 C 15.332031 -25.773438 15.578125 -24.941406 15.328125 -23.796875 C 15.097656 -22.640625 14.5 -21.796875 13.53125 -21.265625 C 12.5625 -20.742188 11.144531 -20.484375 9.28125 -20.484375 Z M 9.71875 0 L 0 0 L 3.96875 -18.6875 L 13.6875 -18.6875 Z M 9.71875 0 "/></g></g></g><g fill="#ffffff" fill-opacity="1"><g transform="translate(238.112355, 198.749987)"><g><path d="M 18.3125 -20.296875 C 17.28125 -20.296875 16.546875 -20.144531 16.109375 -19.84375 C 15.671875 -19.539062 15.378906 -19.15625 15.234375 -18.6875 L 20.859375 -18.6875 L 19.578125 -12.65625 L 13.90625 -12.65625 L 11.234375 0 L 1.453125 0 L 4.125 -12.65625 L 0.875 -12.65625 L 2.171875 -18.6875 L 5.59375 -18.6875 C 5.914062 -19.65625 6.332031 -20.5625 6.84375 -21.40625 C 7.351562 -22.257812 8.015625 -23.007812 8.828125 -23.65625 C 9.648438 -24.3125 10.675781 -24.820312 11.90625 -25.1875 C 13.132812 -25.550781 14.609375 -25.734375 16.328125 -25.734375 C 17.566406 -25.734375 18.734375 -25.660156 19.828125 -25.515625 C 20.921875 -25.367188 21.800781 -25.191406 22.46875 -24.984375 L 21.328125 -19.984375 C 20.742188 -20.085938 20.242188 -20.164062 19.828125 -20.21875 C 19.410156 -20.269531 18.90625 -20.296875 18.3125 -20.296875 Z M 18.3125 -20.296875 "/></g></g></g><g fill="#ffffff" fill-opacity="1"><g transform="translate(256.103083, 198.749987)"><g><path d="M 4.84375 6.328125 L 4.59375 1.296875 C 6.019531 1.117188 7.269531 0.828125 8.34375 0.421875 C 9.425781 0.015625 10.296875 -0.660156 10.953125 -1.609375 L 11.109375 -1.765625 L 7.171875 -1.765625 L 2.140625 -18.6875 L 12.875 -18.6875 L 14.53125 -8.875 L 14.5 -7.484375 L 14.734375 -7.484375 L 15.265625 -8.875 L 21.140625 -18.6875 L 31.875 -18.6875 L 19.546875 -1.328125 C 18.390625 0.335938 17.125 1.707031 15.75 2.78125 C 14.375 3.863281 12.804688 4.6875 11.046875 5.25 C 9.285156 5.820312 7.21875 6.179688 4.84375 6.328125 Z M 4.84375 6.328125 "/></g></g></g></svg>